<svg width="24" height="24" viewBox="0 0 24 24" fill="none" xmlns="http://www.w3.org/2000/svg">
<path d="M12 5L12.9333 4.64102C12.7848 4.25483 12.4138 4 12 4C11.5862 4 11.2152 4.25483 11.0667 4.64102L12 5ZM6.06665 17.641C5.8684 18.1565 6.12555 18.7351 6.64102 18.9333C7.15649 19.1316 7.73509 18.8745 7.93335 18.359L6.06665 17.641ZM16.0667 18.359C16.2649 18.8745 16.8435 19.1316 17.359 18.9333C17.8745 18.7351 18.1316 18.1565 17.9333 17.641L16.0667 18.359ZM11.0667 4.64102L6.06665 17.641L7.93335 18.359L12.9333 5.35898L11.0667 4.64102ZM11.0667 5.35898L16.0667 18.359L17.9333 17.641L12.9333 4.64102L11.0667 5.35898Z" fill="black"/>
<path d="M9 14H15" stroke="black" stroke-width="2"/>
</svg>
