<svg width="24" height="24" viewBox="0 0 24 24" fill="none" xmlns="http://www.w3.org/2000/svg">
<path d="M12 7L12.6854 6.6954C12.565 6.42455 12.2964 6.25 12 6.25C11.7036 6.25 11.435 6.42455 11.3146 6.6954L12 7ZM7.31464 15.6954C7.14641 16.0739 7.31688 16.5171 7.6954 16.6854C8.07391 16.8536 8.51713 16.6831 8.68536 16.3046L7.31464 15.6954ZM15.3146 16.3046C15.4829 16.6831 15.9261 16.8536 16.3046 16.6854C16.6831 16.5171 16.8536 16.0739 16.6854 15.6954L15.3146 16.3046ZM11.3146 6.6954L7.31464 15.6954L8.68536 16.3046L12.6854 7.3046L11.3146 6.6954ZM11.3146 7.3046L15.3146 16.3046L16.6854 15.6954L12.6854 6.6954L11.3146 7.3046Z" fill="#CFD1D3"/>
<path d="M9 13H15" stroke="#CFD1D3" stroke-width="1.5"/>
</svg>
