<svg width="24" height="24" viewBox="0 0 24 24" fill="none" xmlns="http://www.w3.org/2000/svg">
<path d="M12 3L12.9247 2.61925C12.7704 2.24455 12.4052 2 12 2C11.5948 2 11.2296 2.24455 11.0753 2.61925L12 3ZM4.07532 19.6192C3.86504 20.1299 4.10856 20.7144 4.61925 20.9247C5.12994 21.135 5.7144 20.8914 5.92468 20.3808L4.07532 19.6192ZM18.0753 20.3808C18.2856 20.8914 18.8701 21.135 19.3807 20.9247C19.8914 20.7144 20.135 20.1299 19.9247 19.6192L18.0753 20.3808ZM11.0753 2.61925L4.07532 19.6192L5.92468 20.3808L12.9247 3.38075L11.0753 2.61925ZM11.0753 3.38075L18.0753 20.3808L19.9247 19.6192L12.9247 2.61925L11.0753 3.38075Z" fill="#CFD1D3"/>
<path d="M8 14H16" stroke="#CFD1D3" stroke-width="2"/>
</svg>
